<svg height="86" viewBox="0 0 115 86" width="115" xmlns="http://www.w3.org/2000/svg"><path d="m95 60.9485933 12.623808-12.623808c1.392188-1.392188 3.659132-1.3978285 5.053862-.0030988 1.391891 1.3918916 1.393342 3.6574205-.003099 5.0538615l-12.623808 12.623808 12.623808 12.623808c1.392188 1.392188 1.397828 3.6591319.003099 5.0538615-1.391892 1.3918916-3.657421 1.3933422-5.053862-.0030988l-12.623808-12.623808-12.623808 12.623808c-1.392188 1.392188-3.6591319 1.3978284-5.0538615.0030988-1.3918916-1.3918916-1.3933422-3.6574205.0030988-5.0538615l12.623808-12.623808-12.623808-12.623808c-1.392188-1.392188-1.3978284-3.6591319-.0030988-5.0538615 1.3918916-1.3918917 3.6574205-1.3933423 5.0538615.0030988zm-87.108215 20.9725439c7.8395967 5.977545 19.0844061 5.3856549 26.2497066-1.7796456 7.8104858-7.8104858 7.8122032-20.4720681 0-28.2842712-7.131773-7.131773-18.3053313-7.7557842-26.1414916-1.862279v-20.9896738c0-2.2127596-1.79535615-4.0065556-4-4.0065556-2.209139 0-4 1.7956808-4 4.0065556v51.9868888c0 2.2127595 1.79535615 4.0065556 4 4.0065556 1.88965421 0 3.4732646-1.3138559 3.891785-3.0775748zm.108215-16.1000599c.09497792-6.5455174 5.430608-11.8223653 11.998712-11.8223653 6.627417 0 12 5.372583 12 12s-5.372583 12-12 12c-6.568104 0-11.90373408-5.2768479-11.998712-11.8223654zm72.8585084-59.96385693c-7.8104858 7.81048583-7.8122032 20.47206813 0 28.28427123l14.1421356 14.1421356 14.142136-14.1421356c7.810485-7.8104858 7.812203-20.4720681 0-28.28427123-7.810486-7.81048584-20.4720685-7.81220315-28.2842716 0zm14.1421356 26.14213563c6.627417 0 12-5.372583 12-12s-5.372583-12.00000001-12-12.00000001-12 5.37258301-12 12.00000001 5.372583 12 12 12zm-30.000644 16c-2.209139 0-4 1.7845869-4 3.9948028v29.0103944c0 2.2062687 1.7953562 3.9948028 4 3.9948028 2.209139 0 4-1.7845869 4-3.9948028v-29.0103944c0-2.2062687-1.7953562-3.9948028-4-3.9948028zm-16-23c-2.209139 0-4 1.7956808-4 4.0065556v51.9868888c0 2.2127595 1.7953562 4.0065556 4 4.0065556 2.209139 0 4-1.7956808 4-4.0065556v-51.9868888c0-2.2127596-1.7953562-4.0065556-4-4.0065556zm16 16c2.7614237 0 5-2.2385763 5-5 0-2.7614238-2.2385763-5-5-5s-5 2.2385762-5 5c0 2.7614237 2.2385763 5 5 5z" fill="#f50" fill-rule="evenodd"/></svg>