<svg height="11" viewBox="0 0 11 11" width="11" xmlns="http://www.w3.org/2000/svg"><path d="m5.4751598 4.95946588 4.27382073-4.27382073c.19683084-.19683084.51061947-.19403702.70588167.00122512.1895516.18955158.1958106.51129613.0012251.70588166l-4.27382072 4.27382073 4.27391092 4.27391089c.1968308.19683085.194037.51061955-.0012252.70588165-.1895515.1895516-.51129608.1958107-.70588161.0012251l-4.27391089-4.27391086-4.21391089 4.21391086c-.19683084.1968309-.51061951.1940371-.70588166-.0012251-.18955157-.1895516-.19581065-.5112961-.00122512-.70588165l4.21391089-4.21391089-4.21382073-4.21382073c-.19683084-.19683084-.19403702-.51061951.00122512-.70588166.18955158-.18955157.51129613-.19581065.70588166-.00122512z" fill="#4a5059" fill-rule="evenodd"/></svg>