<svg height="24" viewBox="0 0 24 24" width="24" xmlns="http://www.w3.org/2000/svg"><path d="m12 24c6.627417 0 12-5.372583 12-12s-5.372583-12-12-12-12 5.372583-12 12 5.372583 12 12 12zm0-2c5.5228475 0 10-4.4771525 10-10s-4.4771525-10-10-10-10 4.4771525-10 10 4.4771525 10 10 10zm-10-10c0-.799538.11165717-1.5715549.30130725-2.31265972.15554355.24827993.44181247.54467272.9534598.70517982.34622568 1.2123551 1.83202281 2.2283763 1.83202281 2.2283763s-1.05322391 1.7043936-.5849715 2.7576666c.46815412 1.0532239 1.83359544 1.287301 1.91158836 1.8335954.04290348.2997347-.19638293 1.4570474-.42117161 2.4410753-2.4103106-1.6938274-3.99223511-4.4902201-3.99223511-7.6532337zm9.9996069.0000002c-1.0144978-1.2511066-4.19903682-.6001247-4.78410661-.8085987-.44859445-.1599281-2.28916839-1.49914233-.71550027-1.86407686 3.49052445-.80945463 3.45768614-4.02484044 3.49999988-4.79306286.0279634-.50579109.8145273-2.06519532.6548065-2.41878148.4402889-.06824791.8868193-.1154803 1.3447022-.1154803 1.1265972 0 2.2025751.22486609 3.2036072.61712082l-1.2031159.83037583v1.08676513s3.1136822-.32830561 3.5530274-.56242783c.2242481.1776337.7386966.76659375.9469726.96434982-.6040888.20216933-2.7862688 1.23471446-2.6406525 1.45359113.1805091.27125786.6406524 1.33396028.6406524 1.33396028s2.4359153-.70517585 3.6762829-.56952065c.4651071.89389526.8067132 1.87011882.9979359 2.90466047-1.0754374-.40996032-1.720366-1.21495992-2.9973465-.73155036-1.8723708.70911626-4.1768723 2.13811926-2.9255943 4.53320586 1.2512779 2.3950866 2.484481.5433245 2.9255946 2.5021606.8231274 3.6552299-3.9524769 5.6373089-6.1772656 5.6373089-.9438274-.0000525-1.8538922-.1533608-2.71328873-.4323944.84701203-1.1326316 3.72724593-8.3164988 2.71328883-9.5676054z" fill-rule="evenodd"/></svg>