<svg height="25" viewBox="0 0 18 25" width="18" xmlns="http://www.w3.org/2000/svg"><path d="m2.0048815 8c-1.10726548 0-2.0048815.89005841-2.0048815 2.0001062v12.9997876c0 1.1046282.8926228 2.0001062 1.99508929 2.0001062h14.00982141c1.1018574 0 1.9950893-.8900584 1.9950893-2.0001062v-12.9997876c0-1.10462816-.8938998-2.0001062-2.0048815-2.0001062h-1.995311c-.5521784 0-.9998075.44386483-.9998075 1.00000003 0 .55228476.4443084.9963436 1.0026758.99174853l2.0084936-.01652883v13.02478027h-14.0111694v-13h2.00104344c.55170847 0 .99895656-.44386482.99895656-1 0-.55228475-.44371665-1-.99980749-1zm6.99122302-8-4.2908812 4.29422684c-.38948407.38978775-.38711188 1.02388458.00085374 1.4118502l.08784592.08784592c.38995558.38995558 1.02270378.38945031 1.41578956-.00363547l1.79028754-1.79028749.00000007 12.0014981c.00000001.5514576.44386483.9985024 1.00000001.9985024.55228475 0 1.00000004-.4474895 1.00000004-.9985024l.0000001-12.0014981 1.7902872 1.79028749c.3919633.3919634 1.0278238.39160109 1.4157894.00363547l.0878459-.08784592c.3899556-.38995558.393061-1.01884943-.0002459-1.4118502z" fill-rule="evenodd"/></svg>