<svg height="22" viewBox="0 0 18 22" width="18" xmlns="http://www.w3.org/2000/svg"><path d="m2.0048815 5c-1.10726548 0-2.0048815.89005841-2.0048815 2.00010618v12.99978762c0 1.1046282.8926228 2.0001062 1.99508929 2.0001062h14.00982141c1.1018574 0 1.9950893-.8900584 1.9950893-2.0001062v-12.99978762c0-1.10462814-.8938998-2.00010618-2.0048815-2.00010618h-1.995311c-.5521784 0-.9998075.44386483-.9998075 1.00000003 0 .55228476.4443084.9963436 1.0026758.99174853l2.0084936-.01652883v13.02478027h-14.0111694v-13h2.00104344c.55170847 0 .99895656-.44386482.99895656-1 0-.55228475-.44371665-1-.99980749-1zm6.99122302 12.0000005-4.2908812-4.2942269c-.38948407-.3897877-.38711188-1.0238845.00085374-1.4118502l.08784592-.0878459c.38995558-.3899556 1.02270378-.3894503 1.41578956.0036355l1.79028754 1.7902875.00000007-12.00149813c.00000001-.55145763.44386483-.99850237 1.00000001-.99850237.55228475-0 1.00000004.44748944 1.00000004.99850237l.0000001 12.00149813 1.7902872-1.7902875c.3919633-.3919634 1.0278238-.3916011 1.4157894-.0036355l.0878459.0878459c.3899556.3899556.393061 1.0188495-.0002459 1.4118502z" fill="#fff" fill-rule="evenodd"/></svg>