<svg height="19" viewBox="0 0 16 19" width="16" xmlns="http://www.w3.org/2000/svg"><path d="m13.9212571 7c.0545597-.32520847.0829585-.65928779.0829585-1 0-3.3137085-2.6862915-6-6.00000001-6-3.3137085 0-6 2.6862915-6 6 0 .34071221.0283988.67479153.08295844 1h-.0894235c-1.10099894 0-1.99353493.90195036-1.99353494 2.0085302v7.9829396c0 1.1092806.89427809 2.0085302 1.99353494 2.0085302h12.00871487c1.100999 0 1.9935349-.9019504 1.9935349-2.0085302v-7.9829396c0-1.1092806-.894278-2.0085302-1.9935349-2.0085302zm-2.043059 0c.0822645-.31961992.1260175-.65470043.1260175-1 0-2.209139-1.790861-4-4.00000001-4-2.209139 0-4 1.790861-4 4 0 .34529957.043753.68038008.12601749 1z" fill-rule="evenodd"/></svg>