<svg height="25" viewBox="0 0 20 25" width="20" xmlns="http://www.w3.org/2000/svg"><g fill-rule="evenodd"><path d="m4 11.5v-6.5h-4l5-5 5 5h-4v4.25c-1 .5-2 2.25-2 2.25z" fill-opacity=".5" opacity=".4"/><path d="m13.9975267 8.5h-1.9991204c-4.41739783 0-7.9984063 3.5802543-7.9984063 8.0083315v7.4843576c0 .5563224.44386482 1.0073109 1 1.0073109.55228475 0 1-.4498563 1-.9966437v-7.5009833c0-3.3150192 2.68613923-6.0023732 6.0018986-6.0023732h1.9981014v2.4962985c0 1.1029059.6650298 1.3881214 1.4677651.6531789l4.5322349-4.14947698-4.5856815-4.58568167c-.7811065-.78110657-1.4147607-.52041876-1.4153102.59056295z"/></g></svg>