<svg height="24" viewBox="0 0 25 24" width="25" xmlns="http://www.w3.org/2000/svg"><path d="m17.9455283 20h5.5131592c.553577 0 .9517503-.4530363.8910039-.9970301l-.6706687-6.0059398c-.0614891-.5506445-.5583164-.9970301-1.1198556-.9970301h-5.8827488c.3907326.581996.6459984 1.2565088.7124451 1.9756139zm.2620972-10c1.6568542 0 3-1.34314575 3-3s-1.3431458-3-3-3c-1.6568543 0-3 1.34314575-3 3s1.3431457 3 3 3zm-10.05671005 0c2.76142375 0 5.00000005-2.23857625 5.00000005-5s-2.2385763-5-5.00000005-5-5 2.23857625-5 5 2.23857625 5 5 5zm-5.14420691 2c-1.10594632 0-2.09007889.8823887-2.1991823 1.9815559l-.79774198 8.0368882c-.10862853 1.0943831.69986815 1.9815559 1.79822488 1.9815559h12.68586116c1.1017607 0 1.9073283-.8823887 1.7982249-1.9815559l-.797742-8.0368882c-.1086285-1.0943831-1.0908085-1.9815559-2.1991823-1.9815559z" fill-rule="evenodd"/></svg>