<svg height="42" viewBox="0 0 42 42" width="42" xmlns="http://www.w3.org/2000/svg"><path d="m12.2419387 24.7584624-2 7 7-2zm2-1.9999995 5 4.9999981 19-18.99999909-5-4.99999953zm21-21.00000004 5 4.99999809.883873-.8838727c1.1687047-1.16870431 1.1638962-3.06835702-.0043231-4.23657628l-.7590997-.75909965c-1.1710923-1.17109216-3.0696689-1.17123104-4.2365772-.00432258zm-31.24256948 6.24153714c-2.20879063 0-3.99936922 1.79203193-3.99936922 4.0002124v25.9995752c0 2.2092563 1.79203193 4.0002124 4.00021236 4.0002124h25.99957524c2.2092563 0 4.0002124-1.7904482 4.0002124-3.9993692v-17.0006308l-3.9776611 4.5v11.4982026c0 .5532774-.4516665 1.0017974-1.0041617 1.0017974h-24.01401554c-.55458317 0-1.00416166-.4512787-1.00416166-1.0032996v-23.9934008c0-.5541071.44488162-1.0032996 1.00179743-1.0032996h11.49820257l4.5-4z" fill-rule="evenodd"/></svg>