<svg height="60" viewBox="0 0 60 60" width="60" xmlns="http://www.w3.org/2000/svg" xmlns:xlink="http://www.w3.org/1999/xlink"><defs><rect id="a" height="58" rx="2" width="58"/><linearGradient id="b" x1="50%" x2="3.14544%" y1="24.285442%" y2="96.129478%"><stop offset="0" stop-opacity="0"/><stop offset="1" stop-opacity=".4"/></linearGradient><mask id="c" fill="#fff"><use fill="#fff" fill-rule="evenodd" xlink:href="#a"/></mask></defs><g fill="none" fill-rule="evenodd" transform="translate(1 1)"><use fill="#f1efe8" xlink:href="#a"/><path d="m26.0605907 6.93940929-26.0605907 26.06059071-.00000013 8.9999999 6.50000014-6.5000001 23.50000019 23.4999999 6.9999998-.0000004v.0000007h6.9999999l.0000001-34.1211814 14.0605901 14.0605902-.0264291-9.9735708-14.034161-14.0341611v-14.9316769h-7v7.93167696l-7.9658386-7.96583861-10.0351238-.08798215zm4.4999998 4.49999981-19.0605906 19.0605908 25.5000001 25.5000001v-38.1211814z" fill="#fff" mask="url(#c)" stroke="#dbdad6"/><path d="m29 39 24-11.9156627-16.5517241-11.0843373z" fill="url(#b)" fill-opacity=".7" mask="url(#c)"/><g mask="url(#c)"><g transform="translate(13 7)"><path d="m5 5h22v22h-22z" fill="#fff" transform="matrix(.70710678 -.70710678 .70710678 .70710678 -6.627417 16)"/><circle cx="16" cy="16" fill="#4a5059" r="8"/></g></g></g></svg>